<?xml version="1.0" encoding="utf-8"?>
<!-- Svg Vector Icons : http://www.onlinewebfonts.com/icon -->
<!DOCTYPE svg PUBLIC "-//W3C//DTD SVG 1.1//EN" "http://www.w3.org/Graphics/SVG/1.1/DTD/svg11.dtd">
<svg version="1.1" xmlns="http://www.w3.org/2000/svg" xmlns:xlink="http://www.w3.org/1999/xlink" x="0px" y="0px" viewBox="0 0 1000 1000" enable-background="new 0 0 1000 1000" xml:space="preserve">
<metadata> Svg Vector Icons : http://www.onlinewebfonts.com/icon </metadata>
<g><g transform="translate(0.000000,494.000000) scale(0.100000,-0.100000)"><path d="M7961.5,4639.4c-82.4-15.3-214.5-53.6-293.1-84.3c-302.7-120.7-333.3-149.4-1754.6-1566.9L4578.7,1653.1L5731.9,499.9L6886.9-655.2L8166.5,622.5c704.9,704.9,1321.7,1331.3,1371.5,1394.5c454,565.1,484.6,1375.4,70.9,1950C9229.6,4499.6,8601.3,4754.3,7961.5,4639.4z"/><path d="M1552.1,3195.1c-727.9-88.1-1304.5-628.3-1429-1340.9c-76.6-438.7,40.2-917.5,306.5-1260.4c46-59.4,670.4-695.4,1386.9-1409.8L3119-2116.7L4276-965.5L5431.1,185.7l-1340.9,1339c-1452,1450.1-1457.7,1453.9-1783.4,1572.7C2054,3189.3,1789.6,3223.8,1552.1,3195.1z"/><path d="M5833.4-404.2c-191.6-51.7-360.1-189.6-444.4-364c-44.1-90.1-51.7-132.2-53.6-270.1c0-139.8,7.7-178.1,53.6-272c67-137.9,185.8-256.7,319.9-319.9c88.1-42.2,132.2-49.8,277.8-49.8c160.9,0,182,3.8,293.1,65.1c134.1,72.8,229.9,172.4,295,306.5c36.4,72.8,44.1,120.7,44.1,270.1c0,170.5-3.8,189.6-65.1,302.7c-113,206.9-306.5,329.5-538.3,341C5946.4-390.8,5865.9-394.7,5833.4-404.2z"/><path d="M7174.3-1584.2c-99.6-97.7-26.8-266.3,114.9-266.3c55.6,0,82.4,13.4,116.8,53.6c93.9,107.3,24.9,260.5-116.8,260.5C7241.3-1536.3,7204.9-1551.7,7174.3-1584.2z"/><path d="M4672.5-1714.5c-505.7-143.7-655.1-762.4-266.3-1111c250.9-226,616.8-224.1,867.7,5.7c419.5,383.1,174.3,1080.4-392.7,1120.6C4812.4-1693.4,4724.3-1701.1,4672.5-1714.5z"/><path d="M6082.4-2034.4c-53.6-21.1-84.3-59.4-97.7-128.3c-17.2-82.4,67.1-178.1,157.1-178.1c151.3,0,218.4,178.1,101.5,275.8C6182-2013.3,6147.5-2007.6,6082.4-2034.4z"/><path d="M6302.7-2697.2C6118.8-2747,5977-2863.8,5887-3040c-38.3-72.8-51.7-132.2-59.4-249c-11.5-210.7,40.2-342.9,185.8-490.4c147.5-147.5,279.7-197.3,490.4-185.8c185.8,11.5,306.5,63.2,427.2,183.9c126.4,126.4,183.9,266.3,185.8,454c0,178.1-51.7,314.2-172.4,448.2C6795-2714.4,6521.1-2635.9,6302.7-2697.2z"/><path d="M8476.8-2900.2c-40.2-47.9-47.9-72.8-40.2-118.8c15.3-74.7,63.2-122.6,137.9-137.9c84.3-17.2,180.1,67.1,180.1,157.1C8754.6-2846.6,8576.4-2781.4,8476.8-2900.2z"/><path d="M3486.8-3005.6c-116.9-42.1-151.3-182-67-264.3c69-70.9,164.7-65.1,227.9,11.5c26.8,32.6,49.8,70.9,49.8,86.2c0,53.6-53.6,134.1-105.4,157.1C3538.5-2990.3,3530.9-2990.3,3486.8-3005.6z"/><path d="M4641.9-3517c-176.2-57.5-319.9-187.7-400.3-365.9c-44.1-93.9-53.6-141.8-53.6-260.5c0-126.4,9.6-164.7,61.3-272c72.8-145.6,176.2-247.1,327.6-318c153.2-70.9,367.8-70.9,521,0c208.8,97.7,337.1,264.4,381.2,490.4c49.8,268.2-107.3,567-362,687.7C4988.6-3492.1,4768.3-3474.9,4641.9-3517z"/><path d="M7572.7-4310.1c-57.5-9.6-120.7-91.9-120.7-160.9c0-134.1,182-199.2,277.8-101.5C7844.7-4459.5,7739.3-4285.2,7572.7-4310.1z"/><path d="M2433.3-4352.2c-55.5-55.6-51.7-172.4,5.7-226c101.5-95.8,262.4-24.9,262.4,113C2701.4-4333,2527.1-4258.3,2433.3-4352.2z"/></g></g>
</svg>