<svg xmlns="http://www.w3.org/2000/svg" height="290.024" viewBox="0 0 288.962 290.024" width="288.962"><g fill="#333"><path d="m244.614 78.345c5.1-2.719 14.778 5.472 21.615 18.29s8.241 25.416 3.137 28.135-14.78-5.469-21.613-18.285-8.242-25.418-3.139-28.14z" transform="translate(-47.191 2.246)"></path><path d="m61.638 216.65c4.267-2.277 12.364 4.575 18.081 15.3s6.894 21.262 2.625 23.539-12.361-4.572-18.079-15.3-6.897-21.263-2.627-23.539z" transform="translate(13.664 -43.905)"></path><path d="m262.232 192.414c5.3 2.3 4.92 14.967-.861 28.3s-14.764 22.267-20.065 19.971-4.917-14.971.858-28.3 14.763-22.273 20.068-19.971z" transform="translate(-45.864 -35.848)"></path><path d="m138.219 64.6c-.253-6.3 9.541-11.794 21.87-12.282s22.524 4.211 22.776 10.505-9.541 11.792-21.871 12.282-22.522-4.205-22.775-10.505z" transform="translate(-12.73 10.764)"></path><path d="m129.171 283.131c-.253-6.3 9.541-11.794 21.867-12.282s22.527 4.214 22.779 10.508-9.541 11.793-21.871 12.282-22.521-4.211-22.775-10.508z" transform="translate(-9.713 -62.115)"></path><path d="m159.3 202.018a12.715 12.715 0 1 1 -5.237 17.2 12.716 12.716 0 0 1 5.237-17.2z" transform="translate(-17.516 -38.672)"></path><path d="m92.447 171.338a12.582 12.582 0 1 1 -.005 0z" transform="translate(4.607 -28.48)"></path><path d="m180.85 130.9a7.336 7.336 0 1 1 -3.025 9.925 7.335 7.335 0 0 1 3.022-9.923z" transform="translate(-25.653 -15.167)"></path><path d="m216.193 173.738a10.759 10.759 0 1 1 -4.431 14.557 10.759 10.759 0 0 1 4.431-14.557z" transform="translate(-36.835 -29.318)"></path><path d="m202 103.731a7.824 7.824 0 1 1 -3.224 10.585 7.823 7.823 0 0 1 3.224-10.584z" transform="translate(-32.621 -6.086)"></path><path d="m127.359 239.839a4.4 4.4 0 1 1 -1.811 5.955 4.4 4.4 0 0 1 1.811-5.955z" transform="translate(-8.333 -51.612)"></path><path d="m195.944 226.066a6.847 6.847 0 1 1 -2.822 9.262 6.847 6.847 0 0 1 2.822-9.262z" transform="translate(-30.773 -46.922)"></path><path d="m149.853 158.336a6.847 6.847 0 1 1 -2.821 9.264 6.844 6.844 0 0 1 2.817-9.26z" transform="translate(-15.402 -24.335)"></path><path d="m234.631 78.5-1.842-7.918c-24.3 5.636-32.863 7.863-44.817 6.246-3.964-12.182-10.193-10.365 18.658-25.751l-2.5-4.69c-29.057 15.492-23.038 12.3-31.73 1.206 5.869-10.643 11.552-17.412 30.539-35.158l-5.561-5.943c-18.939 17.7-25 23.716-37.022 28.35-8.287-7.263-12.342-2.888 4.2-29.445l-4.512-2.807c-16.757 26.884-12.744 21.44-25.679 16.058-.16-11.772 1.465-20.628 8.872-44.984l-7.78-2.364c-15.3 50.24-15.014 41.515-30.377 40.338-1.28-5.982-1.524-12.368-1.064-26.115l-5.316-.176c-.461 13.771-.562 20.033-2.418 26.029-10.856.181-14.1 8.554-25.86-42.053l-7.922 1.842c5.636 24.3 7.865 32.863 6.246 44.815-12.194 3.97-10.357 10.19-25.746-18.66l-4.688 2.5c15.486 29.052 12.305 23.032 1.2 31.726-10.639-5.865-17.412-11.546-35.162-30.528l-5.939 5.558c35.689 38.185 28.879 35.335 22.106 44.976-5.839-1.885-11.49-4.86-23.2-12.154l-2.808 4.512c11.655 7.266 17.03 10.49 21.291 15.073-5.59 9.787.113 17.041-50.213 1.74l-2.363 7.777c50.536 15.391 41.504 15.1 40.334 30.378-5.983 1.277-12.37 1.52-26.114 1.06l-.176 5.315c31.658 1.068 25.032.447 26.878 13.766-9.9 5.831-18.5 8.847-42.9 14.516l1.847 7.92c50.466-11.713 43.258-7.776 49.119 4.712-4.743 4.476-10.038 7.9-22.96 14.785l2.5 4.692c12.9-6.878 18.28-9.879 24.891-11.148 5.945 9.988 15.392 8.572-23.7 45.1l5.559 5.947c18.94-17.7 25-23.716 37.02-28.35a93.664 93.664 0 0 0 7.961 6.246c-1.882 5.839-4.86 11.49-12.155 23.2l4.513 2.812c7.259-11.664 10.481-17.037 15.059-21.294 9.824 5.611 17.051-.091 1.734 50.2l7.787 2.369c17.932-58.9 32.7-51.626 31.437-14.223l5.309.177c.469-13.766.569-20.029 2.426-26.024 10.88-.183 14.12-8.523 25.862 42.05l7.921-1.842c-5.638-24.3-7.869-32.863-6.245-44.81a95.276 95.276 0 0 0 10.957-4.307c4.479 4.74 7.895 10.034 14.788 22.96l4.692-2.5c-6.878-12.9-9.879-18.28-11.148-24.891 10.042-5.985 8.577-15.379 45.1 23.694l5.943-5.558c-35.691-38.184-28.872-35.345-22.1-44.983 5.839 1.885 11.491 4.863 23.2 12.158l2.812-4.51c-11.661-7.268-17.034-10.491-21.291-15.074 5.611-9.827-.091-17.047 50.207-1.738l2.367-7.781c-50.231-15.295-41.511-15.014-40.338-30.378 5.986-1.277 12.369-1.522 26.116-1.06l.176-5.311c-13.768-.466-20.029-.569-26.029-2.425-.183-10.85-8.546-14.106 42.048-25.85zm-204.226 25.884c-2.722 7.639-8.089 12.693-11.988 11.3s-4.847-8.7-2.127-16.339 8.088-12.7 11.99-11.307 4.847 8.707 2.125 16.346zm17.224-11.034a10.269 10.269 0 1 1 4.232-13.893 10.269 10.269 0 0 1 -4.232 13.893zm-3.373-31.467c-6.204 5.217-13.39 6.883-16.056 3.717s.208-9.962 6.412-15.178 13.388-6.882 16.056-3.715-.208 9.962-6.412 15.176zm30.844 19.591a7.825 7.825 0 0 1 -7.364-13.81 7.826 7.826 0 0 1 7.364 13.81z" transform="translate(46.289 38.431)"></path><path d="m120.218 54.886a4.4 4.4 0 1 1 -1.815 5.956 4.4 4.4 0 0 1 1.815-5.956z" transform="translate(-5.951 10.069)"></path><path d="m291.471 173.762a5.38 5.38 0 1 1 -2.213 7.28 5.382 5.382 0 0 1 2.213-7.28z" transform="translate(-62.891 -29.537)"></path><path d="m217.95 274.493a5.38 5.38 0 1 1 -2.214 7.28v-.005a5.382 5.382 0 0 1 2.214-7.275z" transform="translate(-38.372 -63.13)"></path><path d="m-43.626 203.728c4.986-1.2 10.423 3.636 12.152 10.8s-.923 13.947-5.907 15.15-10.423-3.632-12.149-10.8.918-13.949 5.904-15.15z" transform="translate(50.057 -39.681)"></path><path d="m-34.434 93.581c5.013 1.085 7.815 7.8 6.262 15.006s-6.88 12.17-11.9 11.09-7.813-7.8-6.259-15.006 6.885-12.171 11.897-11.09z" transform="translate(48.956 -2.959)"></path><path d="m26.456 8.552c3.166 4.038 1.033 10.991-4.769 15.543s-13.068 4.964-16.236.935-1.03-10.994 4.768-15.546 13.071-4.965 16.237-.932z" transform="translate(32.034 26.273)"></path><path d="m126.155-34.9c.762 5.075-4.527 10.072-11.818 11.169s-13.813-2.132-14.577-7.2 4.53-10.069 11.821-11.169 13.819 2.131 14.574 7.2z" transform="translate(.118 42.311)"></path><path d="m234.931-26.806c-1.574 4.886-8.531 7.016-15.55 4.756s-11.427-8.043-9.865-12.925 8.532-7.008 15.547-4.75 11.437 8.042 9.868 12.919z" transform="translate(-36.404 41.749)"></path><path d="m321.2 36.582c-3.962 3.268-10.969 1.3-15.655-4.388s-5.28-12.942-1.323-16.206 10.964-1.294 15.654 4.394 5.285 12.942 1.324 16.2z" transform="translate(-67.221 23.394)"></path><path d="m367.806 135.282c-4.943 1.39-10.559-3.234-12.552-10.333s.391-13.973 5.329-15.361 10.552 3.244 12.55 10.339-.396 13.973-5.327 15.355z" transform="translate(-84.877 -8.265)"></path><path d="m361.511 241.066c-5.119-.4-8.8-6.665-8.236-14.021s5.174-12.986 10.287-12.59 8.79 6.672 8.231 14.019-5.173 12.99-10.282 12.592z" transform="translate(-84.433 -43.313)"></path><path d="m298.161 331.992c-3.877-3.367-3.1-10.6 1.733-16.165s11.89-7.354 15.761-3.994 3.089 10.6-1.738 16.17-11.888 7.352-15.756 3.989z" transform="translate(-65.248 -75.228)"></path><path d="m195.449 376.889c-1.236-4.981 3.555-10.451 10.716-12.231s13.949.832 15.188 5.8-3.57 10.449-10.719 12.228-13.954-.821-15.185-5.797z" transform="translate(-31.753 -93.225)"></path><path d="m84.815 366.952c1.4-4.939 8.276-7.306 15.376-5.294s11.7 7.643 10.3 12.579-8.289 7.294-15.379 5.288-11.7-7.642-10.297-12.573z" transform="translate(5.162 -92.172)"></path><path d="m-3 304.755c3.683-3.579 10.819-2.195 15.963 3.091s6.323 12.465 2.649 16.043-10.833 2.179-15.972-3.099-6.323-12.463-2.64-16.035z" transform="translate(35.079 -72.771)"></path><path d="m-3.02 248.716c3.017-1.774 7.525.3 10.078 4.634s2.172 9.286-.842 11.065-7.529-.309-10.081-4.637-2.171-9.286.845-11.062z" transform="translate(35.216 -54.533)"></path><path d="m-17.393 155.195c3.5-.114 6.463 3.868 6.624 8.895s-2.542 9.193-6.036 9.31-6.464-3.876-6.628-8.9 2.544-9.193 6.04-9.305z" transform="translate(41.18 -23.555)"></path><path d="m16.437 67.185c3.091 1.646 3.678 6.572 1.316 11.013s-6.776 6.706-9.869 5.067-3.676-6.578-1.317-11.017 6.779-6.705 9.87-5.063z" transform="translate(31.656 5.973)"></path><path d="m84.795 6.4c1.588 3.123-.754 7.5-5.238 9.78s-9.4 1.6-10.989-1.514.767-7.5 5.24-9.784 9.399-1.604 10.987 1.518z" transform="translate(10.662 27.024)"></path><path d="m175.739-7.217c-.385 3.483-4.739 5.854-9.739 5.305s-8.744-3.817-8.356-7.3 4.752-5.846 9.747-5.3 8.73 3.822 8.348 7.295z" transform="translate(-19.199 33.066)"></path><path d="m266.005 23.936c-1.668 3.075-6.6 3.632-11.024 1.238s-6.657-6.826-4.992-9.906 6.606-3.624 11.025-1.237 6.653 6.826 4.991 9.905z" transform="translate(-49.823 24.015)"></path><path d="m328.4 92.065c-2.825 2.074-7.518.474-10.5-3.584s-3.1-9.012-.283-11.089 7.52-.456 10.5 3.587 3.102 9.021.283 11.086z" transform="translate(-71.882 2.69)"></path><path d="m344.088 183.085c-3.5.019-6.362-4.035-6.393-9.07s2.781-9.112 6.283-9.134 6.355 4.042 6.388 9.068-2.781 9.115-6.278 9.136z" transform="translate(-79.256 -26.786)"></path><path d="m313.147 273.866c-3.317-1.143-4.674-5.916-3.035-10.673s5.639-7.685 8.952-6.547 4.66 5.921 3.029 10.674-5.642 7.68-8.946 6.546z" transform="translate(-69.825 -57.308)"></path><path d="m239.94 336.91c-1.715-3.058.45-7.522 4.845-9.982s9.324-1.973 11.036 1.077-.467 7.52-4.847 9.98-9.33 1.975-11.034-1.075z" transform="translate(-46.459 -80.305)"></path><path d="m147.446 352.779c-.5-3.466 3.131-6.853 8.113-7.571s9.409 1.512 9.909 4.981-3.144 6.846-8.113 7.568c-4.979.706-9.416-1.514-9.909-4.978z" transform="translate(-15.794 -86.88)"></path><path d="m58.086 320.472c1.6-3.115 6.521-3.771 11-1.467s6.79 6.684 5.186 9.8c-1.6 3.1-6.529 3.757-11 1.463-4.461-2.306-6.788-6.684-5.186-9.796z" transform="translate(14.161 -77.727)"></path></g></svg>